<?xml version="1.0" encoding="UTF-8"?>
<!DOCTYPE svg PUBLIC "-//W3C//DTD SVG 1.1//EN" "http://www.w3.org/Graphics/SVG/1.1/DTD/svg11.dtd">
<svg version="1.2" xmlns="http://www.w3.org/2000/svg" xmlns:xlink="http://www.w3.org/1999/xlink" x="0" y="0" width="304" height="90" viewBox="0 0 304 90">
<style type="text/css"><![CDATA[
text { font:12px Dialog; }
]]></style>
<rect x="-487" y="-485" width="1278" height="1060" style="fill:rgb(255,255,255);stroke:none" />
<clipPath id="clip1"><path d="M12,14 L292,14 L292,76 L12,76 L12,14 Z" /></clipPath>
<path d="M21,15 C16.5817261,15 13,18.5817204 13,23 L13,66 C13,70.4182816 16.5817261,74 21,74 L282,74 C286.4182739,74 290,70.4182816 290,66 L290,23 C290,18.5817204 286.4182739,15 282,15 Z" style="fill:rgb(69,208,128);stroke:none" clip-path="url(#clip1)" />
<clipPath id="clip2"><path d="M43,29 L261,29 L261,61 L43,61 L43,29 Z" /></clipPath>
<path d="M53.8613434,34.03125 L57.3183746,34.03125 L57.3183746,44.90625 C57.3183746,46.328125 57.193367,47.421875 56.9433746,48.1875 C56.6074295,49.1875 55.9980545,49.9902344 55.1152496,50.5957031 C54.2324295,51.2011719 53.068367,51.5039063 51.6230621,51.5039063 C49.927742,51.5039063 48.6230545,51.0292969 47.7089996,50.0800781 C46.7949371,49.1308594 46.333992,47.7382813 46.3261871,45.9023438 L49.5957184,45.5273438 C49.6347733,46.5117188 49.7793045,47.2070313 50.0293121,47.6132813 C50.4043045,48.2304688 50.974617,48.5390625 51.7402496,48.5390625 C52.5136871,48.5390625 53.0605545,48.3183594 53.3808746,47.8769531 C53.7011795,47.4355469 53.8613434,46.5195313 53.8613434,45.1289063 Z M60.6230621,44.8125 C60.6230621,43.71875 60.8925934,42.6601563 61.4316559,41.6367188 C61.9707184,40.6132813 62.7343826,39.8320313 63.7226715,39.2929688 C64.7109451,38.7539063 65.8144684,38.484375 67.0332184,38.484375 C68.9160233,38.484375 70.458992,39.0957031 71.6621246,40.3183594 C72.865242,41.5410156 73.4668121,43.0859375 73.4668121,44.953125 C73.4668121,46.8359375 72.8593826,48.3964844 71.6445465,49.6347656 C70.4296951,50.8730469 68.9003983,51.4921875 67.0566559,51.4921875 C65.9160233,51.4921875 64.8281326,51.234375 63.792984,50.71875 C62.7578201,50.203125 61.9707184,49.4472656 61.4316559,48.4511719 C60.8925934,47.4550781 60.6230621,46.2421875 60.6230621,44.8125 Z M63.9980621,44.9882813 C63.9980621,46.2226563 64.2910309,47.1679688 64.8769684,47.8242188 C65.4629059,48.4804688 66.1855545,48.8085938 67.0449371,48.8085938 C67.9043045,48.8085938 68.6250076,48.4804688 69.2070465,47.8242188 C69.7890701,47.1679688 70.0800934,46.2148438 70.0800934,44.9648438 C70.0800934,43.7460938 69.7890701,42.8085938 69.2070465,42.1523438 C68.6250076,41.4960938 67.9043045,41.1679688 67.0449371,41.1679688 C66.1855545,41.1679688 65.4629059,41.4960938 64.8769684,42.1523438 C64.2910309,42.8085938 63.9980621,43.7539063 63.9980621,44.9882813 Z M76.2441559,38.765625 L79.2793121,38.765625 L79.2793121,40.4648438 C80.365242,39.1445313 81.6582184,38.484375 83.1582184,38.484375 C83.9550934,38.484375 84.6464996,38.6484375 85.2324371,38.9765625 C85.8183746,39.3046875 86.2988434,39.8007813 86.6738434,40.4648438 C87.2207108,39.8007813 87.8105621,39.3046875 88.4433746,38.9765625 C89.0761871,38.6484375 89.7519684,38.484375 90.4707184,38.484375 C91.3847809,38.484375 92.1582184,38.6699219 92.7910309,39.0410156 C93.4238434,39.4121094 93.8964996,39.9570313 94.2089996,40.6757813 C94.4355621,41.2070313 94.5488434,42.0664063 94.5488434,43.2539063 L94.5488434,51.2109375 L91.2558746,51.2109375 L91.2558746,44.0976563 C91.2558746,42.8632813 91.1425934,42.0664063 90.9160309,41.7070313 C90.6113434,41.2382813 90.1425934,41.0039063 89.5097809,41.0039063 C89.0488434,41.0039063 88.6152496,41.1445313 88.2089996,41.4257813 C87.802742,41.7070313 87.5097733,42.1191406 87.3300934,42.6621094 C87.1503983,43.2050781 87.0605621,44.0625 87.0605621,45.234375 L87.0605621,51.2109375 L83.7675934,51.2109375 L83.7675934,44.390625 C83.7675934,43.1796875 83.7089996,42.3984375 83.5918121,42.046875 C83.4746246,41.6953125 83.292984,41.4335938 83.0468903,41.2617188 C82.8007965,41.0898438 82.4668121,41.0039063 82.0449371,41.0039063 C81.537117,41.0039063 81.0800858,41.140625 80.6738434,41.4140625 C80.2675858,41.6875 79.9765778,42.0820313 79.8007965,42.5976563 C79.6250153,43.1132813 79.5371246,43.96875 79.5371246,45.1640625 L79.5371246,51.2109375 L76.2441559,51.2109375 Z M97.3144684,47.6601563 L100.6191559,47.15625 C100.7597809,47.796875 101.0449371,48.2832031 101.4746246,48.6152344 C101.9043121,48.9472656 102.5058746,49.1132813 103.2793121,49.1132813 C104.1308746,49.1132813 104.7714996,48.9570313 105.2011871,48.6445313 C105.4902496,48.4257813 105.6347809,48.1328125 105.6347809,47.765625 C105.6347809,47.515625 105.5566559,47.3085938 105.4004059,47.1445313 C105.2363434,46.9882813 104.8691559,46.84375 104.2988434,46.7109375 C101.6425934,46.125 99.9589996,45.5898438 99.2480621,45.1054688 C98.2636871,44.4335938 97.7714996,43.5 97.7714996,42.3046875 C97.7714996,41.2265625 98.1972809,40.3203125 99.0488434,39.5859375 C99.9004059,38.8515625 101.2207184,38.484375 103.0097809,38.484375 C104.7129059,38.484375 105.9785309,38.7617188 106.8066559,39.3164063 C107.6347809,39.8710938 108.2050934,40.6914063 108.5175934,41.7773438 L105.4121246,42.3515625 C105.2793121,41.8671875 105.027359,41.4960938 104.6562653,41.2382813 C104.2851715,40.9804688 103.7558746,40.8515625 103.0683746,40.8515625 C102.2011871,40.8515625 101.5800934,40.9726563 101.2050934,41.2148438 C100.9550934,41.3867188 100.8300934,41.609375 100.8300934,41.8828125 C100.8300934,42.1171875 100.9394684,42.3164063 101.1582184,42.4804688 C101.4550934,42.6992188 102.480484,43.0078125 104.2343903,43.40625 C105.9882965,43.8046875 107.2129059,44.2929688 107.9082184,44.8710938 C108.5957184,45.4570313 108.9394684,46.2734375 108.9394684,47.3203125 C108.9394684,48.4609375 108.4629059,49.4414063 107.5097809,50.2617188 C106.5566559,51.0820313 105.1464996,51.4921875 103.2793121,51.4921875 C101.5839996,51.4921875 100.2422028,51.1484375 99.2539215,50.4609375 C98.2656403,49.7734375 97.6191559,48.8398438 97.3144684,47.6601563 Z M111.4589996,44.8125 C111.4589996,43.71875 111.7285309,42.6601563 112.2675934,41.6367188 C112.8066559,40.6132813 113.5703278,39.8320313 114.558609,39.2929688 C115.5468903,38.7539063 116.6504059,38.484375 117.8691559,38.484375 C119.7519684,38.484375 121.2949371,39.0957031 122.4980621,40.3183594 C123.7011871,41.5410156 124.3027496,43.0859375 124.3027496,44.953125 C124.3027496,46.8359375 123.6953278,48.3964844 122.480484,49.6347656 C121.2656403,50.8730469 119.7363434,51.4921875 117.8925934,51.4921875 C116.7519684,51.4921875 115.6640778,51.234375 114.6289215,50.71875 C113.5937653,50.203125 112.8066559,49.4472656 112.2675934,48.4511719 C111.7285309,47.4550781 111.4589996,46.2421875 111.4589996,44.8125 Z M114.8339996,44.9882813 C114.8339996,46.2226563 115.1269684,47.1679688 115.7129059,47.8242188 C116.2988434,48.4804688 117.0214996,48.8085938 117.8808746,48.8085938 C118.7402496,48.8085938 119.4609528,48.4804688 120.042984,47.8242188 C120.6250153,47.1679688 120.9160309,46.2148438 120.9160309,44.9648438 C120.9160309,43.7460938 120.6250153,42.8085938 120.042984,42.1523438 C119.4609528,41.4960938 118.7402496,41.1679688 117.8808746,41.1679688 C117.0214996,41.1679688 116.2988434,41.4960938 115.7129059,42.1523438 C115.1269684,42.8085938 114.8339996,43.7539063 114.8339996,44.9882813 Z M135.5175934,51.2109375 L135.5175934,49.3476563 C135.0644684,50.0117188 134.4687653,50.5351563 133.730484,50.9179688 C132.9922028,51.3007813 132.2129059,51.4921875 131.3925934,51.4921875 C130.5566559,51.4921875 129.8066559,51.3085938 129.1425934,50.9414063 C128.4785309,50.5742188 127.9980621,50.0585938 127.7011871,49.3945313 C127.4043121,48.7304688 127.2558746,47.8125 127.2558746,46.640625 L127.2558746,38.765625 L130.5488434,38.765625 L130.5488434,44.484375 C130.5488434,46.234375 130.6093903,47.3066406 130.730484,47.7011719 C130.8515778,48.0957031 131.0722809,48.4082031 131.3925934,48.6386719 C131.7129059,48.8691406 132.1191559,48.984375 132.6113434,48.984375 C133.1738434,48.984375 133.6777496,48.8300781 134.1230621,48.5214844 C134.5683746,48.2128906 134.8730621,47.8300781 135.0371246,47.3730469 C135.2011871,46.9160156 135.2832184,45.796875 135.2832184,44.015625 L135.2832184,38.765625 L138.5761871,38.765625 L138.5761871,51.2109375 Z M142.7714996,56.2617188 L142.7714996,33.7382813 L145.3847809,33.7382813 L145.3847809,56.2617188 Z M153.2363434,51.2109375 L153.2363434,36.9375 L148.1386871,36.9375 L148.1386871,34.03125 L161.7910309,34.03125 L161.7910309,36.9375 L156.7050934,36.9375 L156.7050934,51.2109375 Z M163.9941559,37.078125 L163.9941559,34.03125 L167.2871246,34.03125 L167.2871246,37.078125 Z M163.9941559,51.2109375 L163.9941559,38.765625 L167.2871246,38.765625 L167.2871246,51.2109375 Z M170.5566559,52.03125 L174.3183746,52.4882813 C174.3808746,52.9257813 174.5254059,53.2265625 174.7519684,53.390625 C175.0644684,53.625 175.5566559,53.7421875 176.2285309,53.7421875 C177.0879059,53.7421875 177.7324371,53.6132813 178.1621246,53.3554688 C178.4511871,53.1835938 178.6699371,52.90625 178.8183746,52.5234375 C178.9199371,52.25 178.9707184,51.7460938 178.9707184,51.0117188 L178.9707184,49.1953125 C177.9863434,50.5390625 176.7441559,51.2109375 175.2441559,51.2109375 C173.5722809,51.2109375 172.2480621,50.5039063 171.2714996,49.0898438 C170.5058746,47.9726563 170.1230621,46.5820313 170.1230621,44.9179688 C170.1230621,42.8320313 170.6250153,41.2382813 171.6289215,40.1367188 C172.6328278,39.0351563 173.8808746,38.484375 175.3730621,38.484375 C176.9121246,38.484375 178.1816559,39.1601563 179.1816559,40.5117188 L179.1816559,38.765625 L182.2636871,38.765625 L182.2636871,49.9335938 C182.2636871,51.4023438 182.1425934,52.5 181.9004059,53.2265625 C181.6582184,53.953125 181.3183746,54.5234375 180.8808746,54.9375 C180.4433746,55.3515625 179.8593903,55.6757813 179.1289215,55.9101563 C178.3984528,56.1445313 177.4746246,56.2617188 176.3574371,56.2617188 C174.2480621,56.2617188 172.7519684,55.9003906 171.8691559,55.1777344 C170.9863434,54.4550781 170.5449371,53.5390625 170.5449371,52.4296875 C170.5449371,52.3203125 170.5488434,52.1875 170.5566559,52.03125 Z M173.4980621,44.7304688 C173.4980621,46.0507813 173.7539215,47.0175781 174.2656403,47.6308594 C174.777359,48.2441406 175.4082184,48.5507813 176.1582184,48.5507813 C176.9629059,48.5507813 177.6425934,48.2363281 178.1972809,47.6074219 C178.7519684,46.9785156 179.0293121,46.046875 179.0293121,44.8125 C179.0293121,43.5234375 178.7636871,42.5664063 178.2324371,41.9414063 C177.7011871,41.3164063 177.0293121,41.0039063 176.2168121,41.0039063 C175.4277496,41.0039063 174.777359,41.3105469 174.2656403,41.9238281 C173.7539215,42.5371094 173.4980621,43.4726563 173.4980621,44.7304688 Z M193.1738434,47.25 L196.4550934,47.8007813 C196.0332184,49.0039063 195.3672028,49.9199219 194.4570465,50.5488281 C193.5468903,51.1777344 192.4082184,51.4921875 191.0410309,51.4921875 C188.8769684,51.4921875 187.2754059,50.7851563 186.2363434,49.3710938 C185.4160309,48.2382813 185.0058746,46.8085938 185.0058746,45.0820313 C185.0058746,43.0195313 185.5449371,41.4042969 186.6230621,40.2363281 C187.7011871,39.0683594 189.0644684,38.484375 190.7129059,38.484375 C192.5644684,38.484375 194.0254059,39.0957031 195.0957184,40.3183594 C196.1660309,41.5410156 196.6777496,43.4140625 196.6308746,45.9375 L188.3808746,45.9375 C188.4043121,46.9140625 188.6699371,47.6738281 189.1777496,48.2167969 C189.6855621,48.7597656 190.3183746,49.03125 191.0761871,49.03125 C191.5918121,49.03125 192.0254059,48.890625 192.3769684,48.609375 C192.7285309,48.328125 192.9941559,47.875 193.1738434,47.25 Z M193.3613434,43.921875 C193.3379059,42.96875 193.0918121,42.2441406 192.6230621,41.7480469 C192.1543121,41.2519531 191.5839996,41.0039063 190.9121246,41.0039063 C190.1933746,41.0039063 189.5996246,41.265625 189.1308746,41.7890625 C188.6621246,42.3125 188.4316559,43.0234375 188.4394684,43.921875 Z M202.8652496,51.2109375 L199.5722809,51.2109375 L199.5722809,38.765625 L202.6308746,38.765625 L202.6308746,40.5351563 C203.1543121,39.6992188 203.6250153,39.1484375 204.042984,38.8828125 C204.4609528,38.6171875 204.9355621,38.484375 205.4668121,38.484375 C206.2168121,38.484375 206.9394684,38.6914063 207.6347809,39.1054688 L206.6152496,41.9765625 C206.0605621,41.6171875 205.5449371,41.4375 205.0683746,41.4375 C204.6074371,41.4375 204.2168121,41.5644531 203.8964996,41.8183594 C203.5761871,42.0722656 203.324234,42.53125 203.1406403,43.1953125 C202.9570465,43.859375 202.8652496,45.25 202.8652496,47.3671875 Z M215.3457184,45.6210938 L218.7207184,45.2929688 C218.9238281,46.4257813 219.3359528,47.2578125 219.9570465,47.7890625 C220.5781403,48.3203125 221.4160309,48.5859375 222.4707184,48.5859375 C223.5878906,48.5859375 224.4296875,48.3496094 224.996109,47.8769531 C225.5625,47.4042969 225.8457184,46.8515625 225.8457184,46.21875 C225.8457184,45.8125 225.7265625,45.4667969 225.4882965,45.1816406 C225.25,44.8964844 224.8339844,44.6484375 224.2402496,44.4375 C223.8339844,44.296875 222.9082031,44.046875 221.4629059,43.6875 C219.6035156,43.2265625 218.2988434,42.6601563 217.5488434,41.9882813 C216.4941559,41.0429688 215.9668121,39.890625 215.9668121,38.53125 C215.9668121,37.65625 216.2148438,36.8378906 216.7109528,36.0761719 C217.2070313,35.3144531 217.921875,34.734375 218.855484,34.3359375 C219.7890625,33.9375 220.9160156,33.7382813 222.2363434,33.7382813 C224.3925934,33.7382813 226.0156403,34.2109375 227.105484,35.15625 C228.1953278,36.1015625 228.7675781,37.3632813 228.8222809,38.9414063 L225.3535309,39.09375 C225.2050781,38.2109375 224.8867188,37.5761719 224.3984528,37.1894531 C223.9101563,36.8027344 223.1777344,36.609375 222.2011871,36.609375 C221.1933746,36.609375 220.4042969,36.8164063 219.8339996,37.2304688 C219.4667969,37.4960938 219.2832184,37.8515625 219.2832184,38.296875 C219.2832184,38.703125 219.4550781,39.0507813 219.7988434,39.3398438 C220.2363281,39.7070313 221.2988434,40.0898438 222.9863434,40.4882813 C224.6738281,40.8867188 225.921875,41.2988281 226.730484,41.7246094 C227.5390778,42.1503906 228.1718903,42.7324219 228.6289215,43.4707031 C229.0859528,44.2089844 229.3144684,45.1210938 229.3144684,46.2070313 C229.3144684,47.1914063 229.0410156,48.1132813 228.4941559,48.9726563 C227.9472656,49.8320313 227.1738281,50.4707031 226.1738434,50.8886719 C225.1738281,51.3066406 223.9277344,51.515625 222.4355621,51.515625 C220.2636719,51.515625 218.5957031,51.0136719 217.4316559,50.0097656 C216.2675781,49.0058594 215.5722809,47.5429688 215.3457184,45.6210938 Z M235.1504059,42.5625 L232.1621246,42.0234375 C232.4980469,40.8203125 233.0761871,39.9296875 233.8964996,39.3515625 C234.7168121,38.7734375 235.9355621,38.484375 237.5527496,38.484375 C239.0214844,38.484375 240.1152344,38.6582031 240.8339996,39.0058594 C241.5527344,39.3535156 242.058609,39.7949219 242.3515778,40.3300781 C242.6445465,40.8652344 242.7910309,41.8476563 242.7910309,43.2773438 L242.7558746,47.1210938 C242.7558746,48.2148438 242.808609,49.0214844 242.9140778,49.5410156 C243.0195465,50.0605469 243.2167969,50.6171875 243.5058746,51.2109375 L240.2480621,51.2109375 C240.1621094,50.9921875 240.0566406,50.6679688 239.9316559,50.2382813 C239.8769531,50.0429688 239.8379059,49.9140625 239.8144684,49.8515625 C239.2519684,50.3984375 238.6503906,50.8085938 238.0097809,51.0820313 C237.3691406,51.3554688 236.6855469,51.4921875 235.9589996,51.4921875 C234.6777344,51.4921875 233.667984,51.1445313 232.9297028,50.4492188 C232.1914215,49.7539063 231.8222809,48.875 231.8222809,47.8125 C231.8222809,47.109375 231.9902344,46.4824219 232.3261871,45.9316406 C232.6621094,45.3808594 233.1328125,44.9589844 233.7382965,44.6660156 C234.34375,44.3730469 235.2168121,44.1171875 236.3574371,43.8984375 C237.8964844,43.609375 238.9628906,43.3398438 239.5566559,43.0898438 L239.5566559,42.7617188 C239.5566559,42.1289063 239.4003906,41.6777344 239.0879059,41.4082031 C238.7753906,41.1386719 238.1855621,41.0039063 237.3183746,41.0039063 C236.7324371,41.0039063 236.2754059,41.1191406 235.9472809,41.3496094 C235.6191559,41.5800781 235.3535156,41.984375 235.1504059,42.5625 Z M239.5566559,45.234375 C239.1347809,45.375 238.4668121,45.5429688 237.5527496,45.7382813 C236.6386871,45.9335938 236.0410309,46.125 235.7597809,46.3125 C235.3300781,46.6171875 235.1152496,47.0039063 235.1152496,47.4726563 C235.1152496,47.9335938 235.2871094,48.3320313 235.6308746,48.6679688 C235.9746094,49.0039063 236.4121094,49.171875 236.9433746,49.171875 C237.5371094,49.171875 238.1035309,48.9765625 238.6425934,48.5859375 C239.0410309,48.2890625 239.3027344,47.9257813 239.4277496,47.4960938 C239.5136719,47.2148438 239.5566559,46.6796875 239.5566559,45.890625 Z M244.8769684,38.765625 L248.3808746,38.765625 L251.3574371,47.6015625 L254.2636871,38.765625 L257.6738281,38.765625 L253.2793121,50.7421875 L252.4941559,52.9101563 C252.2050781,53.6367188 251.9296875,54.1914063 251.667984,54.5742188 C251.40625,54.9570313 251.105484,55.2675781 250.7656403,55.5058594 C250.4257965,55.7441406 250.0078125,55.9296875 249.511734,56.0625 C249.015625,56.1953125 248.4550781,56.2617188 247.8300934,56.2617188 C247.1972809,56.2617188 246.5761871,56.1953125 245.9668121,56.0625 L245.6738434,53.484375 C246.1894684,53.5859375 246.6542969,53.6367188 247.0683746,53.6367188 C247.8339844,53.6367188 248.4003906,53.4121094 248.7675934,52.9628906 C249.1347656,52.5136719 249.4160156,51.9414063 249.6113434,51.2460938 Z" style="fill:rgb(255,255,255);stroke:none" clip-path="url(#clip2)" />
</svg>
